<mxfile host="app.diagrams.net" modified="2023-06-01T11:27:24.284Z" agent="Mozilla/5.0 (Windows NT 10.0; Win64; x64) AppleWebKit/537.36 (KHTML, like Gecko) Chrome/114.0.0.0 Safari/537.36" version="21.3.6" etag="lbXHy05b-K6xGddT-M69" type="google">
  <diagram name="PÃ¡gina-1" id="4w4To7m8ZzysSUgd6DNe">
    <mxGraphModel>
      <root>
        <mxCell id="0" />
        <mxCell id="1" parent="0" />
      </root>
    </mxGraphModel>
  </diagram>
</mxfile>
